<svg width="70" height="70" viewBox="0 0 70 70" fill="none" xmlns="http://www.w3.org/2000/svg">
<g clip-path="url(#clip0_261_774)">
<path d="M48.0047 6.81965L44.7388 3.55371H3.55469V63.1784H21.9953L25.2613 66.4443H66.4453V6.81965H48.0047Z" fill="#061D2E"/>
<path d="M3.55469 10.4482H18.5762L21.0372 7.9873H36.1572L39.4778 11.3079H51.3997V10.7611H39.7053L36.3825 7.44043H3.55469V10.4482Z" fill="#119BFF"/>
<path d="M47.0742 62.5636H32.8008V62.0167H46.8467L48.5727 60.293H66.4445V60.8398H48.8002L47.0742 62.5636Z" fill="#119BFF"/>
<g opacity="0.25">
<path d="M9.26844 3.55371H3.55469V63.1784H9.26844V3.55371Z" fill="#305876"/>
</g>
<g opacity="0.25">
<path d="M9.26844 7.44043H3.55469V10.4482H9.26844V7.44043Z" fill="white"/>
</g>
<g filter="url(#filter0_d_261_774)">
<path d="M48.3828 17.1553H21.6166C19.0966 17.1553 17.1562 19.0978 17.1562 21.6156V48.3796C17.1562 50.8975 19.0987 52.84 21.6166 52.84H48.3806C50.8984 52.84 52.8409 50.8975 52.8409 48.3796V21.6156C52.8431 19.0978 50.9006 17.1553 48.3828 17.1553ZM35.0259 27.9878C38.9831 27.9878 42.19 31.0962 42.19 34.9309C42.19 38.7634 38.9831 41.874 35.0259 41.874C31.0709 41.874 27.8641 38.7634 27.8641 34.9309C27.8641 31.0962 31.0731 27.9878 35.0259 27.9878ZM48.3828 47.2662C48.3828 48.0471 48.0481 48.3818 47.2672 48.3818H22.7322C21.9534 48.3818 21.6166 48.0493 21.6166 47.2662V31.654L24.3969 32.2578C24.0994 33.229 23.9353 34.255 23.9353 35.3181C23.9353 41.2484 28.9031 46.0609 35.0237 46.0609C41.1487 46.0609 46.1122 41.2484 46.1122 35.3181C46.1122 34.2528 45.9503 33.2268 45.6528 32.2578L48.3784 31.654V47.2662H48.3828ZM48.3828 27.1915C48.3828 27.8084 47.8841 28.3071 47.2672 28.3071H42.8069C42.19 28.3071 41.6912 27.8084 41.6912 27.1915V22.7312C41.6912 22.1143 42.19 21.6156 42.8069 21.6156H47.2672C47.8841 21.6156 48.3828 22.1143 48.3828 22.7312V27.1915Z" fill="#119BFF"/>
</g>
</g>
<defs>
<filter id="filter0_d_261_774" x="-12.8438" y="-8.84473" width="95.6855" height="95.6846" filterUnits="userSpaceOnUse" color-interpolation-filters="sRGB">
<feFlood flood-opacity="0" result="BackgroundImageFix"/>
<feColorMatrix in="SourceAlpha" type="matrix" values="0 0 0 0 0 0 0 0 0 0 0 0 0 0 0 0 0 0 127 0" result="hardAlpha"/>
<feOffset dy="4"/>
<feGaussianBlur stdDeviation="15"/>
<feComposite in2="hardAlpha" operator="out"/>
<feColorMatrix type="matrix" values="0 0 0 0 0.0784314 0 0 0 0 0.666667 0 0 0 0 1 0 0 0 0.5 0"/>
<feBlend mode="normal" in2="BackgroundImageFix" result="effect1_dropShadow_261_774"/>
<feBlend mode="normal" in="SourceGraphic" in2="effect1_dropShadow_261_774" result="shape"/>
</filter>
<clipPath id="clip0_261_774">
<rect width="70" height="70" fill="white" transform="translate(0 -0.000976562)"/>
</clipPath>
</defs>
</svg>
