<svg width="26" height="26" viewBox="0 0 26 26" fill="none" xmlns="http://www.w3.org/2000/svg">
<path d="M13 2.64062C10.9511 2.64062 8.94824 3.24819 7.24464 4.38649C5.54105 5.5248 4.21327 7.14271 3.42919 9.03564C2.64511 10.9286 2.43996 13.0115 2.83968 15.021C3.2394 17.0305 4.22604 18.8764 5.67482 20.3252C7.12361 21.774 8.96947 22.7606 10.979 23.1603C12.9885 23.56 15.0714 23.3549 16.9644 22.5708C18.8573 21.7867 20.4752 20.459 21.6135 18.7554C22.7518 17.0518 23.3594 15.0489 23.3594 13C23.3562 10.2535 22.2637 7.62044 20.3216 5.67838C18.3796 3.73632 15.7465 2.64385 13 2.64062ZM21.2845 9.14063H17.2037C16.7596 7.29868 15.9497 5.56483 14.822 4.04219C16.2219 4.32986 17.5352 4.94065 18.6572 5.82584C19.7792 6.71102 20.6789 7.84613 21.2845 9.14063ZM22.1406 13C22.1413 13.8945 22.0102 14.7843 21.7516 15.6406H17.4545C17.7444 13.8921 17.7444 12.1079 17.4545 10.3594H21.7516C22.0102 11.2157 22.1413 12.1055 22.1406 13ZM13 22.1406C12.9747 22.1408 12.9496 22.1355 12.9265 22.1252C12.9034 22.1148 12.8827 22.0997 12.8659 22.0807C11.5578 20.672 10.597 18.8632 10.0547 16.8594H15.9453C15.403 18.8632 14.4422 20.672 13.1341 22.0807C13.1173 22.0997 13.0966 22.1148 13.0735 22.1252C13.0504 22.1355 13.0253 22.1408 13 22.1406ZM9.78149 15.6406C9.46869 13.8941 9.46869 12.1059 9.78149 10.3594H16.2185C16.5313 12.1059 16.5313 13.8941 16.2185 15.6406H9.78149ZM3.85938 13C3.8587 12.1055 3.98976 11.2157 4.24836 10.3594H8.54547C8.25566 12.1079 8.25566 13.8921 8.54547 15.6406H4.24836C3.98976 14.7843 3.8587 13.8945 3.85938 13ZM13 3.85938C13.0253 3.85924 13.0504 3.86451 13.0735 3.87484C13.0966 3.88518 13.1173 3.90033 13.1341 3.9193C14.4422 5.32797 15.403 7.1368 15.9453 9.14063H10.0547C10.597 7.1368 11.5578 5.32797 12.8659 3.9193C12.8827 3.90033 12.9034 3.88518 12.9265 3.87484C12.9496 3.86451 12.9747 3.85924 13 3.85938ZM11.178 4.04219C10.0503 5.56483 9.24041 7.29868 8.79633 9.14063H4.71555C5.32112 7.84613 6.22078 6.71102 7.34278 5.82584C8.46478 4.94065 9.77809 4.32986 11.178 4.04219ZM4.71555 16.8594H8.79633C9.24041 18.7013 10.0503 20.4352 11.178 21.9578C9.77809 21.6701 8.46478 21.0594 7.34278 20.1742C6.22078 19.289 5.32112 18.1539 4.71555 16.8594ZM14.822 21.9578C15.9497 20.4352 16.7596 18.7013 17.2037 16.8594H21.2845C20.6789 18.1539 19.7792 19.289 18.6572 20.1742C17.5352 21.0594 16.2219 21.6701 14.822 21.9578Z" fill="#119BFF"/>
</svg>
