<svg width="300" height="300" viewBox="0 0 300 300" fill="none" xmlns="http://www.w3.org/2000/svg">
<path d="M251 146C251 162.445 246.944 178.636 239.192 193.14C231.44 207.643 220.231 220.011 206.557 229.147C192.883 238.283 177.168 243.907 160.802 245.518C144.436 247.13 127.925 244.681 112.732 238.388C97.5384 232.095 84.1316 222.152 73.699 209.439C63.2663 196.727 56.1298 181.638 52.9215 165.509C49.7132 149.38 50.5322 132.709 55.306 116.972C60.0797 101.235 68.6609 86.9178 80.2893 75.2893L81.7635 76.7635C70.3775 88.1495 61.9753 102.168 57.301 117.577C52.6268 132.986 51.8248 149.309 54.9662 165.102C58.1076 180.895 65.0954 195.67 75.3105 208.117C85.5257 220.564 98.653 230.3 113.529 236.462C128.406 242.624 144.573 245.022 160.597 243.444C176.622 241.865 192.01 236.359 205.399 227.413C218.787 218.468 229.763 206.358 237.353 192.157C244.944 177.956 248.915 162.102 248.915 146H251Z" fill="url(#paint0_linear_261_302)"/>
<path d="M72.0932 124.723C75.562 111.777 82.1702 99.886 91.3322 90.1038C100.494 80.3216 111.927 72.95 124.619 68.6418C137.31 64.3336 150.868 63.2219 164.092 65.4052C177.316 67.5884 189.797 72.9992 200.43 81.1583C211.063 89.3174 219.52 99.9729 225.052 112.181C230.583 124.389 233.018 137.773 232.142 151.147C231.265 164.521 227.104 177.472 220.026 188.854C212.949 200.236 203.173 209.696 191.566 216.398L190.717 214.926C202.082 208.365 211.653 199.101 218.583 187.957C225.513 176.813 229.588 164.131 230.446 151.036C231.304 137.941 228.92 124.836 223.504 112.882C218.088 100.929 209.807 90.4953 199.396 82.5063C188.984 74.5173 176.763 69.2193 163.815 67.0816C150.867 64.9439 137.592 66.0324 125.165 70.2507C112.738 74.4691 101.543 81.6871 92.5723 91.2653C83.6013 100.844 77.131 112.486 73.7344 125.163L72.0932 124.723Z" fill="url(#paint1_linear_261_302)"/>
<path d="M107.712 189.136C100.688 182.112 95.5044 173.464 92.6208 163.958C89.7373 154.452 89.2426 144.382 91.1805 134.64C93.1184 124.897 97.4292 115.783 103.731 108.104C110.033 100.425 118.131 94.4193 127.308 90.6179C136.486 86.8166 146.459 85.3372 156.344 86.3108C166.23 87.2845 175.723 90.6811 183.982 96.1999C192.242 101.719 199.013 109.189 203.695 117.95C208.378 126.71 210.828 136.49 210.828 146.424L209.568 146.424C209.568 136.697 207.17 127.121 202.585 118.543C198 109.965 191.37 102.651 183.283 97.2469C175.195 91.8433 165.9 88.5174 156.221 87.5641C146.541 86.6107 136.776 88.0593 127.79 91.7814C118.804 95.5035 110.875 101.384 104.704 108.903C98.534 116.422 94.3132 125.346 92.4156 134.885C90.5181 144.425 91.0025 154.285 93.8259 163.593C96.6493 172.9 101.725 181.368 108.602 188.245L107.712 189.136Z" fill="url(#paint2_linear_261_302)"/>
<g filter="url(#filter0_d_261_302)">
<circle cx="150" cy="146" r="53" fill="url(#paint3_linear_261_302)"/>
<circle cx="150" cy="146" r="52" stroke="url(#paint4_linear_261_302)" stroke-width="2"/>
</g>
<path fill-rule="evenodd" clip-rule="evenodd" d="M142.081 127.341C138.774 125.545 134.812 127.915 134.812 131.485V137.667C134.812 138.53 134.113 139.229 133.25 139.229C132.387 139.229 131.688 138.53 131.688 137.667V131.485C131.688 125.431 138.284 121.722 143.573 124.596L170.259 139.11C171.507 139.775 172.551 140.766 173.279 141.979C174.009 143.193 174.395 144.583 174.395 146C174.395 147.417 174.009 148.807 173.279 150.021C172.551 151.234 171.507 152.225 170.259 152.891L156.919 160.146C156.161 160.558 155.213 160.278 154.8 159.519C154.388 158.761 154.668 157.813 155.426 157.4L168.785 150.135C169.535 149.736 170.163 149.14 170.601 148.412C171.038 147.684 171.27 146.85 171.27 146C171.27 145.15 171.038 144.316 170.601 143.588C170.163 142.86 169.535 142.264 168.785 141.865L168.772 141.858L142.081 127.341C142.081 127.342 142.08 127.341 142.081 127.341ZM133.25 144.438C134.113 144.438 134.812 145.137 134.812 146V160.515C134.812 164.085 138.774 166.455 142.081 164.658L148.753 161.03C149.512 160.617 150.46 160.898 150.873 161.656C151.285 162.414 151.005 163.362 150.247 163.775L143.574 167.404C138.285 170.278 131.688 166.569 131.688 160.515V146C131.688 145.137 132.387 144.438 133.25 144.438Z" fill="#1D0629"/>
<defs>
<filter id="filter0_d_261_302" x="0" y="0" width="300" height="300" filterUnits="userSpaceOnUse" color-interpolation-filters="sRGB">
<feFlood flood-opacity="0" result="BackgroundImageFix"/>
<feColorMatrix in="SourceAlpha" type="matrix" values="0 0 0 0 0 0 0 0 0 0 0 0 0 0 0 0 0 0 127 0" result="hardAlpha"/>
<feOffset dy="4"/>
<feGaussianBlur stdDeviation="48.5"/>
<feComposite in2="hardAlpha" operator="out"/>
<feColorMatrix type="matrix" values="0 0 0 0 1 0 0 0 0 0.337255 0 0 0 0 0.964706 0 0 0 0.5 0"/>
<feBlend mode="normal" in2="BackgroundImageFix" result="effect1_dropShadow_261_302"/>
<feBlend mode="normal" in="SourceGraphic" in2="effect1_dropShadow_261_302" result="shape"/>
</filter>
<linearGradient id="paint0_linear_261_302" x1="51" y1="46" x2="293.823" y2="55.4484" gradientUnits="userSpaceOnUse">
<stop offset="0.183111" stop-color="#FF56F6"/>
<stop offset="0.432593" stop-color="#B936EE"/>
<stop offset="0.854443" stop-color="#3BACE2"/>
<stop offset="1" stop-color="#406AFF"/>
</linearGradient>
<linearGradient id="paint1_linear_261_302" x1="208.445" y1="245.633" x2="19.2809" y2="186.975" gradientUnits="userSpaceOnUse">
<stop offset="0.183111" stop-color="#FF56F6"/>
<stop offset="0.432593" stop-color="#B936EE"/>
<stop offset="0.854443" stop-color="#3BACE2"/>
<stop offset="1" stop-color="#406AFF"/>
</linearGradient>
<linearGradient id="paint2_linear_261_302" x1="235.848" y1="146.424" x2="128.098" y2="246.103" gradientUnits="userSpaceOnUse">
<stop offset="0.183111" stop-color="#FF56F6"/>
<stop offset="0.432593" stop-color="#B936EE"/>
<stop offset="0.854443" stop-color="#3BACE2"/>
<stop offset="1" stop-color="#406AFF"/>
</linearGradient>
<linearGradient id="paint3_linear_261_302" x1="97" y1="93" x2="225.696" y2="98.0076" gradientUnits="userSpaceOnUse">
<stop offset="0.183111" stop-color="#FF56F6"/>
<stop offset="0.432593" stop-color="#B936EE"/>
<stop offset="0.854443" stop-color="#3BACE2"/>
<stop offset="1" stop-color="#406AFF"/>
</linearGradient>
<linearGradient id="paint4_linear_261_302" x1="204.856" y1="199" x2="90.2813" y2="193.949" gradientUnits="userSpaceOnUse">
<stop offset="0.473958" stop-color="#FFA6FA"/>
<stop offset="0.96875" stop-color="#3C79D5"/>
</linearGradient>
</defs>
</svg>
