<svg width="70" height="70" viewBox="0 0 70 70" fill="none" xmlns="http://www.w3.org/2000/svg">
<g clip-path="url(#clip0_261_813)">
<path d="M48.0047 6.81965L44.7388 3.55371H3.55469V63.1784H21.9953L25.2613 66.4443H66.4453V6.81965H48.0047Z" fill="#061D2E"/>
<path d="M3.55469 10.4482H18.5762L21.0372 7.9873H36.1572L39.4778 11.3079H51.3997V10.7611H39.7053L36.3825 7.44043H3.55469V10.4482Z" fill="#119BFF"/>
<path d="M47.0742 62.5636H32.8008V62.0167H46.8467L48.5727 60.293H66.4445V60.8398H48.8002L47.0742 62.5636Z" fill="#119BFF"/>
<g opacity="0.25">
<path d="M9.26844 3.55371H3.55469V63.1784H9.26844V3.55371Z" fill="#305876"/>
</g>
<g opacity="0.25">
<path d="M9.26844 7.44043H3.55469V10.4482H9.26844V7.44043Z" fill="white"/>
</g>
<g filter="url(#filter0_d_261_813)">
<path d="M30.3872 52.7676H37.7306V34.9964H42.6284L43.2781 28.8736H37.7306L37.7372 25.8067C37.7372 24.2098 37.8903 23.3545 40.1806 23.3545H43.2431V17.2295H38.3431C32.4587 17.2295 30.3872 20.2001 30.3872 25.1964V28.8736H26.7188V34.9986H30.3872V52.7676Z" fill="#119BFF"/>
</g>
</g>
<defs>
<filter id="filter0_d_261_813" x="-3.28125" y="-8.77051" width="76.5586" height="95.5381" filterUnits="userSpaceOnUse" color-interpolation-filters="sRGB">
<feFlood flood-opacity="0" result="BackgroundImageFix"/>
<feColorMatrix in="SourceAlpha" type="matrix" values="0 0 0 0 0 0 0 0 0 0 0 0 0 0 0 0 0 0 127 0" result="hardAlpha"/>
<feOffset dy="4"/>
<feGaussianBlur stdDeviation="15"/>
<feComposite in2="hardAlpha" operator="out"/>
<feColorMatrix type="matrix" values="0 0 0 0 0.0784314 0 0 0 0 0.666667 0 0 0 0 1 0 0 0 0.5 0"/>
<feBlend mode="normal" in2="BackgroundImageFix" result="effect1_dropShadow_261_813"/>
<feBlend mode="normal" in="SourceGraphic" in2="effect1_dropShadow_261_813" result="shape"/>
</filter>
<clipPath id="clip0_261_813">
<rect width="70" height="70" fill="white" transform="translate(0 -0.000976562)"/>
</clipPath>
</defs>
</svg>
