<svg width="24" height="24" viewBox="0 0 24 24" fill="none" xmlns="http://www.w3.org/2000/svg">
<path d="M21.6503 19.875C20.2225 17.4065 18.0222 15.6365 15.4544 14.7975C16.7246 14.0414 17.7114 12.8892 18.2634 11.5179C18.8153 10.1467 18.9019 8.63211 18.5098 7.20688C18.1177 5.78165 17.2685 4.52454 16.0928 3.6286C14.9171 2.73266 13.4798 2.24744 12.0016 2.24744C10.5234 2.24744 9.08609 2.73266 7.91037 3.6286C6.73465 4.52454 5.88553 5.78165 5.49342 7.20688C5.1013 8.63211 5.18787 10.1467 5.73983 11.5179C6.2918 12.8892 7.27863 14.0414 8.54878 14.7975C5.98097 15.6356 3.78066 17.4056 2.35285 19.875C2.30049 19.9604 2.26576 20.0554 2.2507 20.1544C2.23565 20.2534 2.24059 20.3544 2.26521 20.4515C2.28984 20.5486 2.33366 20.6397 2.39409 20.7196C2.45452 20.7995 2.53033 20.8664 2.61706 20.9165C2.70378 20.9666 2.79966 20.9988 2.89904 21.0113C2.99842 21.0237 3.09928 21.0161 3.19568 20.989C3.29208 20.9618 3.38205 20.9156 3.4603 20.8531C3.53855 20.7906 3.60349 20.713 3.65128 20.625C5.41753 17.5725 8.53941 15.75 12.0016 15.75C15.4638 15.75 18.5857 17.5725 20.3519 20.625C20.3997 20.713 20.4646 20.7906 20.5429 20.8531C20.6211 20.9156 20.7111 20.9618 20.8075 20.989C20.9039 21.0161 21.0048 21.0237 21.1042 21.0113C21.2035 20.9988 21.2994 20.9666 21.3861 20.9165C21.4729 20.8664 21.5487 20.7995 21.6091 20.7196C21.6695 20.6397 21.7134 20.5486 21.738 20.4515C21.7626 20.3544 21.7675 20.2534 21.7525 20.1544C21.7374 20.0554 21.7027 19.9604 21.6503 19.875ZM6.7516 8.99999C6.7516 7.96164 7.0595 6.9466 7.63638 6.08324C8.21326 5.21989 9.0332 4.54698 9.99251 4.14962C10.9518 3.75226 12.0074 3.64829 13.0258 3.85086C14.0442 4.05344 14.9797 4.55345 15.7139 5.28768C16.4481 6.0219 16.9481 6.95736 17.1507 7.97576C17.3533 8.99416 17.2493 10.0498 16.852 11.0091C16.4546 11.9684 15.7817 12.7883 14.9183 13.3652C14.055 13.9421 13.0399 14.25 12.0016 14.25C10.6097 14.2485 9.27517 13.6949 8.29093 12.7107C7.30669 11.7264 6.75309 10.3919 6.7516 8.99999Z" fill="#119BFF"/>
</svg>
