<?xml version="1.0" encoding="utf-8"?>
<!-- Generator: Adobe Illustrator 27.0.0, SVG Export Plug-In . SVG Version: 6.00 Build 0)  -->
<svg version="1.1" id="Layer_1" xmlns="http://www.w3.org/2000/svg" xmlns:xlink="http://www.w3.org/1999/xlink" x="0px" y="0px"
	 viewBox="0 0 70 70" style="enable-background:new 0 0 70 70;" xml:space="preserve">
<style type="text/css">
	.st0{clip-path:url(#SVGID_00000162349832339283122010000013543757877244650644_);}
	.st1{fill:#061D2E;}
	.st2{fill:#119BFF;}
	.st3{opacity:0.25;}
	.st4{fill:#305876;}
	.st5{fill:#FFFFFF;}
</style>
<g>
	<defs>
		<rect id="SVGID_1_" y="0" width="70" height="70"/>
	</defs>
	<clipPath id="SVGID_00000126316737227839492260000005195932498685515704_">
		<use xlink:href="#SVGID_1_"  style="overflow:visible;"/>
	</clipPath>
	<g style="clip-path:url(#SVGID_00000126316737227839492260000005195932498685515704_);">
		<path class="st1" d="M48,6.8l-3.3-3.3H3.6v59.6H22l3.3,3.3h41.2V6.8H48z"/>
		<path class="st2" d="M3.6,10.4h15L21,8h15.1l3.3,3.3h11.9v-0.5H39.7l-3.3-3.3H3.6V10.4z"/>
		<path class="st2" d="M47.1,62.6H32.8V62h14l1.7-1.7h17.9v0.5H48.8L47.1,62.6z"/>
		<g class="st3">
			<path class="st4" d="M9.3,3.6H3.6v59.6h5.7V3.6z"/>
		</g>
		<g class="st3">
			<path class="st5" d="M9.3,7.4H3.6v3h5.7V7.4z"/>
		</g>
	</g>
</g>
<path class="st2" d="M35.3,45.9c-1.6,1.5-3.2,3-4.8,4.5c-0.3,0.3-0.6,0.6-0.9,0.8c-0.8,0.7-1.9,0.5-2.3-0.5c0-0.1-0.1-0.2,0-0.3
	c0.1-1.8,0.3-3.6,0.4-5.4c0.1-0.7,0.1-1.3,0.2-2c0-0.2,0.1-0.4,0.2-0.5c3.7-3.3,7.3-6.6,10.9-10c3.1-2.8,6.3-5.7,9.4-8.5
	c0.1-0.1,0.3-0.3,0.4-0.4c0.1-0.2,0-0.4-0.2-0.4c-0.4-0.1-0.8,0-1.1,0.2c-0.9,0.6-1.9,1.1-2.8,1.7c-4.1,2.5-8.2,5.1-12.2,7.6
	c-3,1.9-6.1,3.8-9.1,5.7c-0.2,0.1-0.3,0.1-0.5,0.1c-2.9-0.9-5.8-1.8-8.6-2.8c-0.4-0.1-0.9-0.3-1.3-0.5c-0.9-0.5-1-1.4-0.2-2.1
	c0.3-0.3,0.7-0.5,1.2-0.7c3.8-1.5,7.7-3,11.6-4.5c3.6-1.4,7.2-2.8,10.8-4.2c3.9-1.5,7.7-3,11.6-4.5c1.5-0.6,3.1-1.2,4.6-1.8
	c0.5-0.2,1-0.3,1.5-0.3c0.9,0,1.5,0.5,1.6,1.4c0.1,0.6,0.1,1.3-0.1,1.9c-0.4,2-0.8,3.9-1.2,5.9c-0.5,2.3-1,4.6-1.5,7
	c-0.7,3.4-1.4,6.8-2.1,10.2c-0.5,2.6-1.1,5.1-1.6,7.7c-0.1,0.4-0.2,0.8-0.4,1.1c-0.6,1.4-1.6,1.8-2.9,1.1c-0.7-0.4-1.4-0.9-2.1-1.4
	c-2.7-2-5.5-4.1-8.2-6.1C35.4,46,35.4,45.9,35.3,45.9z"/>
</svg>
