<?xml version="1.0" encoding="utf-8"?>
<!-- Generator: Adobe Illustrator 27.0.0, SVG Export Plug-In . SVG Version: 6.00 Build 0)  -->
<svg version="1.1" id="Layer_1" xmlns="http://www.w3.org/2000/svg" xmlns:xlink="http://www.w3.org/1999/xlink" x="0px" y="0px"
	 viewBox="0 0 70 70" style="enable-background:new 0 0 70 70;" xml:space="preserve">
<style type="text/css">
	.st0{clip-path:url(#SVGID_00000059990790190263442170000017359478402694121639_);}
	.st1{fill:#061D2E;}
	.st2{fill:#119BFF;}
	.st3{opacity:0.25;}
	.st4{fill:#305876;}
	.st5{fill:#FFFFFF;}
</style>
<g>
	<defs>
		<rect id="SVGID_1_" y="0" width="70" height="70"/>
	</defs>
	<clipPath id="SVGID_00000137123617298110461820000000804797152528113067_">
		<use xlink:href="#SVGID_1_"  style="overflow:visible;"/>
	</clipPath>
	<g style="clip-path:url(#SVGID_00000137123617298110461820000000804797152528113067_);">
		<path class="st1" d="M48,6.8l-3.3-3.3H3.6v59.6H22l3.3,3.3h41.2V6.8H48z"/>
		<path class="st2" d="M3.6,10.4h15L21,8h15.1l3.3,3.3h11.9v-0.5H39.7l-3.3-3.3H3.6V10.4z"/>
		<path class="st2" d="M47.1,62.6H32.8V62h14l1.7-1.7h17.9v0.5H48.8L47.1,62.6z"/>
		<g class="st3">
			<path class="st4" d="M9.3,3.6H3.6v59.6h5.7V3.6z"/>
		</g>
		<g class="st3">
			<path class="st5" d="M9.3,7.4H3.6v3h5.7V7.4z"/>
		</g>
	</g>
</g>
<path d="M-591.1-158.4c-0.3,0.3-0.7,0.7-1,1C-591.8-157.7-591.5-158-591.1-158.4z"/>
<path class="st2" d="M16.4,30c1.3,0.4,2.5,0.8,3.7,1.1c0-0.1,0.1-0.1,0.1-0.2c-3.9-3.3-4.8-7.2-2.6-12c4.8,5.8,10.9,8.8,18.4,9.4
	c0-0.2,0-0.4,0-0.6c-0.6-3.9,1.2-7.6,4.7-9.4c3.3-1.7,7.4-1.2,10.2,1.4c0.3,0.3,0.6,0.4,1.1,0.3c0.8-0.3,1.7-0.5,2.5-0.8
	c0.8-0.3,1.6-0.7,2.5-1.1c-0.7,2-1.9,3.6-3.6,4.7c0,0.1,0.1,0.1,0.1,0.2c1.5-0.4,3.1-0.8,4.6-1.3c-0.8,1.2-1.7,2.4-2.9,3.2
	c-1.1,0.8-1.5,1.8-1.5,3.2c-0.4,8.6-4.1,15.5-11.2,20.4c-3.6,2.5-7.7,3.9-12.1,4.2c-5.4,0.4-10.4-0.8-15.1-3.5
	c-0.2-0.1-0.3-0.2-0.5-0.4c4.7,0.4,9-0.8,12.9-3.7c-4.1-0.4-6.8-2.5-8.3-6.3c1.3,0,2.5,0,3.7,0c0-0.1,0-0.1,0-0.2
	c-2-0.6-3.6-1.6-4.9-3.2C17,33.9,16.4,32.1,16.4,30z"/>
</svg>
